<?xml version="1.0" encoding="UTF-8" standalone="no"?>
<!DOCTYPE svg PUBLIC "-//W3C//DTD SVG 1.1//EN"
 "http://www.w3.org/Graphics/SVG/1.1/DTD/svg11.dtd">
<!-- Generated by graphviz version 2.43.0 (0)
 -->
<!-- Title: dump_graph Pages: 1 -->
<svg width="464pt" height="254pt"
 viewBox="0.00 0.00 464.00 254.00" xmlns="http://www.w3.org/2000/svg" xmlns:xlink="http://www.w3.org/1999/xlink">
<g id="graph0" class="graph" transform="scale(1 1) rotate(0) translate(4 250)">
<title>dump_graph</title>
<polygon fill="white" stroke="transparent" points="-4,4 -4,-250 460,-250 460,4 -4,4"/>
<!-- node0x55b44cbfd6f0 -->
<g id="node1" class="node">
<title>node0x55b44cbfd6f0</title>
<polygon fill="lightskyblue" stroke="transparent" points="11,-124 11,-145 117,-145 117,-124 11,-124"/>
<polygon fill="none" stroke="black" points="11,-124 11,-145 117,-145 117,-124 11,-124"/>
<text text-anchor="start" x="59" y="-130.8" font-family="Times,serif" font-size="14.00">5</text>
<polygon fill="none" stroke="black" points="11,-101 11,-122 60,-122 60,-101 11,-101"/>
<text text-anchor="start" x="14" y="-107.8" font-family="Times,serif" font-size="14.00">L:(nil)</text>
<polygon fill="none" stroke="black" points="62,-101 62,-122 117,-122 117,-101 62,-101"/>
<text text-anchor="start" x="65" y="-107.8" font-family="Times,serif" font-size="14.00">R: (nil)</text>
<polygon fill="none" stroke="black" points="8,-98 8,-148 120,-148 120,-98 8,-98"/>
</g>
<!-- node0x55b44cbfd6b0 -->
<g id="node2" class="node">
<title>node0x55b44cbfd6b0</title>
<polygon fill="#9acd32" stroke="transparent" points="43,-218 43,-239 327,-239 327,-218 43,-218"/>
<polygon fill="none" stroke="black" points="43,-218 43,-239 327,-239 327,-218 43,-218"/>
<text text-anchor="start" x="182.5" y="-224.8" font-family="Times,serif" font-size="14.00">/</text>
<polygon fill="none" stroke="black" points="43,-195 43,-216 179,-216 179,-195 43,-195"/>
<text text-anchor="start" x="46" y="-201.8" font-family="Times,serif" font-size="14.00">L:0x55b44cbfd6f0</text>
<polygon fill="none" stroke="black" points="181,-195 181,-216 327,-216 327,-195 181,-195"/>
<text text-anchor="start" x="184" y="-201.8" font-family="Times,serif" font-size="14.00">R: 0x55b44cbfd730</text>
<polygon fill="none" stroke="black" points="40,-192 40,-242 330,-242 330,-192 40,-192"/>
</g>
<!-- node0x55b44cbfd6b0&#45;&gt;node0x55b44cbfd6f0 -->
<g id="edge1" class="edge">
<title>node0x55b44cbfd6b0:lchild&#45;&gt;node0x55b44cbfd6f0</title>
<path fill="none" stroke="black" stroke-width="2" d="M42,-205C22.36,-205 29.5,-182.56 40.65,-161.3"/>
<polygon fill="black" stroke="black" stroke-width="2" points="45.62,-152.33 44.71,-163.26 43.63,-156.95 41.21,-161.32 40.78,-161.08 40.34,-160.84 42.76,-156.46 36.84,-158.9 45.62,-152.33 45.62,-152.33"/>
</g>
<!-- node0x55b44cbfd730 -->
<g id="node3" class="node">
<title>node0x55b44cbfd730</title>
<polygon fill="#9acd32" stroke="transparent" points="157,-124 157,-145 445,-145 445,-124 157,-124"/>
<polygon fill="none" stroke="black" points="157,-124 157,-145 445,-145 445,-124 157,-124"/>
<text text-anchor="start" x="294.5" y="-130.8" font-family="Times,serif" font-size="14.00">^</text>
<polygon fill="none" stroke="black" points="157,-101 157,-122 297,-122 297,-101 157,-101"/>
<text text-anchor="start" x="160" y="-107.8" font-family="Times,serif" font-size="14.00">L:0x55b44cbfd770</text>
<polygon fill="none" stroke="black" points="299,-101 299,-122 445,-122 445,-101 299,-101"/>
<text text-anchor="start" x="302" y="-107.8" font-family="Times,serif" font-size="14.00">R: 0x55b44cbfd7b0</text>
<polygon fill="none" stroke="black" points="154,-98 154,-148 448,-148 448,-98 154,-98"/>
</g>
<!-- node0x55b44cbfd6b0&#45;&gt;node0x55b44cbfd730 -->
<g id="edge2" class="edge">
<title>node0x55b44cbfd6b0:rchild&#45;&gt;node0x55b44cbfd730</title>
<path fill="none" stroke="black" stroke-width="2" d="M254,-194C254,-181.99 258.83,-170.49 265.38,-160.41"/>
<polygon fill="black" stroke="black" stroke-width="2" points="271.23,-152.29 269.04,-163.03 268.72,-156.64 265.79,-160.7 265.39,-160.4 264.98,-160.11 267.91,-156.05 261.74,-157.77 271.23,-152.29 271.23,-152.29"/>
</g>
<!-- node0x55b44cbfd770 -->
<g id="node4" class="node">
<title>node0x55b44cbfd770</title>
<polygon fill="orchid" stroke="transparent" points="173,-30 173,-51 279,-51 279,-30 173,-30"/>
<polygon fill="none" stroke="black" points="173,-30 173,-51 279,-51 279,-30 173,-30"/>
<text text-anchor="start" x="221.5" y="-36.8" font-family="Times,serif" font-size="14.00">x</text>
<polygon fill="none" stroke="black" points="173,-7 173,-28 222,-28 222,-7 173,-7"/>
<text text-anchor="start" x="176" y="-13.8" font-family="Times,serif" font-size="14.00">L:(nil)</text>
<polygon fill="none" stroke="black" points="224,-7 224,-28 279,-28 279,-7 224,-7"/>
<text text-anchor="start" x="227" y="-13.8" font-family="Times,serif" font-size="14.00">R: (nil)</text>
<polygon fill="none" stroke="black" points="170,-4 170,-54 282,-54 282,-4 170,-4"/>
</g>
<!-- node0x55b44cbfd730&#45;&gt;node0x55b44cbfd770 -->
<g id="edge3" class="edge">
<title>node0x55b44cbfd730:lchild&#45;&gt;node0x55b44cbfd770</title>
<path fill="none" stroke="black" stroke-width="2" d="M227,-100C227,-89.81 226.89,-78.78 226.75,-68.56"/>
<polygon fill="black" stroke="black" stroke-width="2" points="226.59,-58.27 231.24,-68.2 227.17,-63.26 227.24,-68.26 226.74,-68.27 226.24,-68.27 226.17,-63.28 222.24,-68.34 226.59,-58.27 226.59,-58.27"/>
</g>
<!-- node0x55b44cbfd7b0 -->
<g id="node5" class="node">
<title>node0x55b44cbfd7b0</title>
<polygon fill="lightskyblue" stroke="transparent" points="319,-30 319,-51 425,-51 425,-30 319,-30"/>
<polygon fill="none" stroke="black" points="319,-30 319,-51 425,-51 425,-30 319,-30"/>
<text text-anchor="start" x="367" y="-36.8" font-family="Times,serif" font-size="14.00">2</text>
<polygon fill="none" stroke="black" points="319,-7 319,-28 368,-28 368,-7 319,-7"/>
<text text-anchor="start" x="322" y="-13.8" font-family="Times,serif" font-size="14.00">L:(nil)</text>
<polygon fill="none" stroke="black" points="370,-7 370,-28 425,-28 425,-7 370,-7"/>
<text text-anchor="start" x="373" y="-13.8" font-family="Times,serif" font-size="14.00">R: (nil)</text>
<polygon fill="none" stroke="black" points="316,-4 316,-54 428,-54 428,-4 316,-4"/>
</g>
<!-- node0x55b44cbfd730&#45;&gt;node0x55b44cbfd7b0 -->
<g id="edge4" class="edge">
<title>node0x55b44cbfd730:rchild&#45;&gt;node0x55b44cbfd7b0</title>
<path fill="none" stroke="black" stroke-width="2" d="M372,-100C372,-89.81 372,-78.78 372,-68.56"/>
<polygon fill="black" stroke="black" stroke-width="2" points="372,-58.27 376.5,-68.27 372.5,-63.27 372.5,-68.27 372,-68.27 371.5,-68.27 371.5,-63.27 367.5,-68.27 372,-58.27 372,-58.27"/>
</g>
</g>
</svg>
