<?xml version="1.0" encoding="UTF-8" standalone="no"?>
<!DOCTYPE svg PUBLIC "-//W3C//DTD SVG 1.1//EN"
 "http://www.w3.org/Graphics/SVG/1.1/DTD/svg11.dtd">
<!-- Generated by graphviz version 2.43.0 (0)
 -->
<!-- Title: dump_graph Pages: 1 -->
<svg width="136pt" height="66pt"
 viewBox="0.00 0.00 136.00 66.00" xmlns="http://www.w3.org/2000/svg" xmlns:xlink="http://www.w3.org/1999/xlink">
<g id="graph0" class="graph" transform="scale(1 1) rotate(0) translate(4 62)">
<title>dump_graph</title>
<polygon fill="white" stroke="transparent" points="-4,4 -4,-62 132,-62 132,4 -4,4"/>
<!-- node0x55d689fa9500 -->
<g id="node1" class="node">
<title>node0x55d689fa9500</title>
<polygon fill="lightskyblue" stroke="transparent" points="11,-30 11,-51 117,-51 117,-30 11,-30"/>
<polygon fill="none" stroke="black" points="11,-30 11,-51 117,-51 117,-30 11,-30"/>
<text text-anchor="start" x="59" y="-36.8" font-family="Times,serif" font-size="14.00">1</text>
<polygon fill="none" stroke="black" points="11,-7 11,-28 60,-28 60,-7 11,-7"/>
<text text-anchor="start" x="14" y="-13.8" font-family="Times,serif" font-size="14.00">L:(nil)</text>
<polygon fill="none" stroke="black" points="62,-7 62,-28 117,-28 117,-7 62,-7"/>
<text text-anchor="start" x="65" y="-13.8" font-family="Times,serif" font-size="14.00">R: (nil)</text>
<polygon fill="none" stroke="black" points="8,-4 8,-54 120,-54 120,-4 8,-4"/>
</g>
</g>
</svg>
