<?xml version="1.0" encoding="UTF-8" standalone="no"?>
<!DOCTYPE svg PUBLIC "-//W3C//DTD SVG 1.1//EN"
 "http://www.w3.org/Graphics/SVG/1.1/DTD/svg11.dtd">
<!-- Generated by graphviz version 2.43.0 (0)
 -->
<!-- Title: dump_graph Pages: 1 -->
<svg width="318pt" height="160pt"
 viewBox="0.00 0.00 318.00 160.00" xmlns="http://www.w3.org/2000/svg" xmlns:xlink="http://www.w3.org/1999/xlink">
<g id="graph0" class="graph" transform="scale(1 1) rotate(0) translate(4 156)">
<title>dump_graph</title>
<polygon fill="white" stroke="transparent" points="-4,4 -4,-156 314,-156 314,4 -4,4"/>
<!-- node0x55edebf63500 -->
<g id="node1" class="node">
<title>node0x55edebf63500</title>
<polygon fill="orchid" stroke="transparent" points="28,-30 28,-51 134,-51 134,-30 28,-30"/>
<polygon fill="none" stroke="black" points="28,-30 28,-51 134,-51 134,-30 28,-30"/>
<text text-anchor="start" x="76.5" y="-36.8" font-family="Times,serif" font-size="14.00">x</text>
<polygon fill="none" stroke="black" points="28,-7 28,-28 77,-28 77,-7 28,-7"/>
<text text-anchor="start" x="31" y="-13.8" font-family="Times,serif" font-size="14.00">L:(nil)</text>
<polygon fill="none" stroke="black" points="79,-7 79,-28 134,-28 134,-7 79,-7"/>
<text text-anchor="start" x="82" y="-13.8" font-family="Times,serif" font-size="14.00">R: (nil)</text>
<polygon fill="none" stroke="black" points="25,-4 25,-54 137,-54 137,-4 25,-4"/>
</g>
<!-- node0x55edebf634c0 -->
<g id="node2" class="node">
<title>node0x55edebf634c0</title>
<polygon fill="#9acd32" stroke="transparent" points="11,-124 11,-145 299,-145 299,-124 11,-124"/>
<polygon fill="none" stroke="black" points="11,-124 11,-145 299,-145 299,-124 11,-124"/>
<text text-anchor="start" x="151.5" y="-130.8" font-family="Times,serif" font-size="14.00">*</text>
<polygon fill="none" stroke="black" points="11,-101 11,-122 151,-122 151,-101 11,-101"/>
<text text-anchor="start" x="14" y="-107.8" font-family="Times,serif" font-size="14.00">L:0x55edebf63500</text>
<polygon fill="none" stroke="black" points="153,-101 153,-122 299,-122 299,-101 153,-101"/>
<text text-anchor="start" x="156" y="-107.8" font-family="Times,serif" font-size="14.00">R: 0x55edebf63540</text>
<polygon fill="none" stroke="black" points="8,-98 8,-148 302,-148 302,-98 8,-98"/>
</g>
<!-- node0x55edebf634c0&#45;&gt;node0x55edebf63500 -->
<g id="edge1" class="edge">
<title>node0x55edebf634c0:lchild&#45;&gt;node0x55edebf63500</title>
<path fill="none" stroke="black" stroke-width="2" d="M81,-100C81,-89.81 81,-78.78 81,-68.56"/>
<polygon fill="black" stroke="black" stroke-width="2" points="81,-58.27 85.5,-68.27 81.5,-63.27 81.5,-68.27 81,-68.27 80.5,-68.27 80.5,-63.27 76.5,-68.27 81,-58.27 81,-58.27"/>
</g>
<!-- node0x55edebf63540 -->
<g id="node3" class="node">
<title>node0x55edebf63540</title>
<polygon fill="lightskyblue" stroke="transparent" points="174,-30 174,-51 280,-51 280,-30 174,-30"/>
<polygon fill="none" stroke="black" points="174,-30 174,-51 280,-51 280,-30 174,-30"/>
<text text-anchor="start" x="213" y="-36.8" font-family="Times,serif" font-size="14.00">189</text>
<polygon fill="none" stroke="black" points="174,-7 174,-28 223,-28 223,-7 174,-7"/>
<text text-anchor="start" x="177" y="-13.8" font-family="Times,serif" font-size="14.00">L:(nil)</text>
<polygon fill="none" stroke="black" points="225,-7 225,-28 280,-28 280,-7 225,-7"/>
<text text-anchor="start" x="228" y="-13.8" font-family="Times,serif" font-size="14.00">R: (nil)</text>
<polygon fill="none" stroke="black" points="171,-4 171,-54 283,-54 283,-4 171,-4"/>
</g>
<!-- node0x55edebf634c0&#45;&gt;node0x55edebf63540 -->
<g id="edge2" class="edge">
<title>node0x55edebf634c0:rchild&#45;&gt;node0x55edebf63540</title>
<path fill="none" stroke="black" stroke-width="2" d="M226,-100C226,-89.81 226.11,-78.78 226.25,-68.56"/>
<polygon fill="black" stroke="black" stroke-width="2" points="226.41,-58.27 230.76,-68.34 226.83,-63.28 226.76,-68.27 226.26,-68.27 225.76,-68.26 225.83,-63.26 221.76,-68.2 226.41,-58.27 226.41,-58.27"/>
</g>
</g>
</svg>
