<?xml version="1.0" encoding="UTF-8" standalone="no"?>
<!DOCTYPE svg PUBLIC "-//W3C//DTD SVG 1.1//EN"
 "http://www.w3.org/Graphics/SVG/1.1/DTD/svg11.dtd">
<!-- Generated by graphviz version 2.43.0 (0)
 -->
<!-- Title: dump_graph Pages: 1 -->
<svg width="488pt" height="348pt"
 viewBox="0.00 0.00 488.00 348.00" xmlns="http://www.w3.org/2000/svg" xmlns:xlink="http://www.w3.org/1999/xlink">
<g id="graph0" class="graph" transform="scale(1 1) rotate(0) translate(4 344)">
<title>dump_graph</title>
<polygon fill="white" stroke="transparent" points="-4,4 -4,-344 484,-344 484,4 -4,4"/>
<!-- node0x5648f1fa7540 -->
<g id="node1" class="node">
<title>node0x5648f1fa7540</title>
<polygon fill="orchid" stroke="transparent" points="11,-124 11,-145 117,-145 117,-124 11,-124"/>
<polygon fill="none" stroke="black" points="11,-124 11,-145 117,-145 117,-124 11,-124"/>
<text text-anchor="start" x="59.5" y="-130.8" font-family="Times,serif" font-size="14.00">x</text>
<polygon fill="none" stroke="black" points="11,-101 11,-122 60,-122 60,-101 11,-101"/>
<text text-anchor="start" x="14" y="-107.8" font-family="Times,serif" font-size="14.00">L:(nil)</text>
<polygon fill="none" stroke="black" points="62,-101 62,-122 117,-122 117,-101 62,-101"/>
<text text-anchor="start" x="65" y="-107.8" font-family="Times,serif" font-size="14.00">R: (nil)</text>
<polygon fill="none" stroke="black" points="8,-98 8,-148 120,-148 120,-98 8,-98"/>
</g>
<!-- node0x5648f1fa7500 -->
<g id="node2" class="node">
<title>node0x5648f1fa7500</title>
<polygon fill="#9acd32" stroke="transparent" points="41,-218 41,-239 323,-239 323,-218 41,-218"/>
<polygon fill="none" stroke="black" points="41,-218 41,-239 323,-239 323,-218 41,-218"/>
<text text-anchor="start" x="175.5" y="-224.8" font-family="Times,serif" font-size="14.00">+</text>
<polygon fill="none" stroke="black" points="41,-195 41,-216 178,-216 178,-195 41,-195"/>
<text text-anchor="start" x="44" y="-201.8" font-family="Times,serif" font-size="14.00">L:0x5648f1fa7540</text>
<polygon fill="none" stroke="black" points="180,-195 180,-216 323,-216 323,-195 180,-195"/>
<text text-anchor="start" x="183" y="-201.8" font-family="Times,serif" font-size="14.00">R: 0x5648f1fa7580</text>
<polygon fill="none" stroke="black" points="38,-192 38,-242 326,-242 326,-192 38,-192"/>
</g>
<!-- node0x5648f1fa7500&#45;&gt;node0x5648f1fa7540 -->
<g id="edge1" class="edge">
<title>node0x5648f1fa7500:lchild&#45;&gt;node0x5648f1fa7540</title>
<path fill="none" stroke="black" stroke-width="2" d="M109,-194C109,-182.16 104.38,-170.72 98.11,-160.64"/>
<polygon fill="black" stroke="black" stroke-width="2" points="92.24,-152.16 101.63,-157.83 95.5,-155.99 98.34,-160.1 97.93,-160.39 97.52,-160.67 94.68,-156.56 94.23,-162.95 92.24,-152.16 92.24,-152.16"/>
</g>
<!-- node0x5648f1fa7580 -->
<g id="node3" class="node">
<title>node0x5648f1fa7580</title>
<polygon fill="#9acd32" stroke="transparent" points="158,-124 158,-145 439,-145 439,-124 158,-124"/>
<polygon fill="none" stroke="black" points="158,-124 158,-145 439,-145 439,-124 158,-124"/>
<text text-anchor="start" x="292" y="-130.8" font-family="Times,serif" font-size="14.00">^</text>
<polygon fill="none" stroke="black" points="158,-101 158,-122 294,-122 294,-101 158,-101"/>
<text text-anchor="start" x="161" y="-107.8" font-family="Times,serif" font-size="14.00">L:0x5648f1fa75c0</text>
<polygon fill="none" stroke="black" points="296,-101 296,-122 439,-122 439,-101 296,-101"/>
<text text-anchor="start" x="299" y="-107.8" font-family="Times,serif" font-size="14.00">R: 0x5648f1fa7600</text>
<polygon fill="none" stroke="black" points="154.5,-98 154.5,-148 441.5,-148 441.5,-98 154.5,-98"/>
</g>
<!-- node0x5648f1fa7500&#45;&gt;node0x5648f1fa7580 -->
<g id="edge2" class="edge">
<title>node0x5648f1fa7500:rchild&#45;&gt;node0x5648f1fa7580</title>
<path fill="none" stroke="black" stroke-width="2" d="M252,-194C252,-181.96 256.81,-170.38 263.33,-160.23"/>
<polygon fill="black" stroke="black" stroke-width="2" points="269.13,-152.06 267.01,-162.82 266.64,-156.42 263.75,-160.5 263.34,-160.21 262.93,-159.92 265.83,-155.85 259.67,-157.61 269.13,-152.06 269.13,-152.06"/>
</g>
<!-- node0x5648f1fa75c0 -->
<g id="node4" class="node">
<title>node0x5648f1fa75c0</title>
<polygon fill="orchid" stroke="transparent" points="171,-30 171,-51 277,-51 277,-30 171,-30"/>
<polygon fill="none" stroke="black" points="171,-30 171,-51 277,-51 277,-30 171,-30"/>
<text text-anchor="start" x="219.5" y="-36.8" font-family="Times,serif" font-size="14.00">x</text>
<polygon fill="none" stroke="black" points="171,-7 171,-28 220,-28 220,-7 171,-7"/>
<text text-anchor="start" x="174" y="-13.8" font-family="Times,serif" font-size="14.00">L:(nil)</text>
<polygon fill="none" stroke="black" points="222,-7 222,-28 277,-28 277,-7 222,-7"/>
<text text-anchor="start" x="225" y="-13.8" font-family="Times,serif" font-size="14.00">R: (nil)</text>
<polygon fill="none" stroke="black" points="168,-4 168,-54 280,-54 280,-4 168,-4"/>
</g>
<!-- node0x5648f1fa7580&#45;&gt;node0x5648f1fa75c0 -->
<g id="edge3" class="edge">
<title>node0x5648f1fa7580:lchild&#45;&gt;node0x5648f1fa75c0</title>
<path fill="none" stroke="black" stroke-width="2" d="M226,-100C226,-89.8 225.79,-78.78 225.5,-68.55"/>
<polygon fill="black" stroke="black" stroke-width="2" points="225.17,-58.26 229.99,-68.12 225.83,-63.25 225.99,-68.24 225.49,-68.26 224.99,-68.27 224.83,-63.28 220.99,-68.4 225.17,-58.26 225.17,-58.26"/>
</g>
<!-- node0x5648f1fa7600 -->
<g id="node5" class="node">
<title>node0x5648f1fa7600</title>
<polygon fill="orchid" stroke="transparent" points="317,-30 317,-51 423,-51 423,-30 317,-30"/>
<polygon fill="none" stroke="black" points="317,-30 317,-51 423,-51 423,-30 317,-30"/>
<text text-anchor="start" x="365.5" y="-36.8" font-family="Times,serif" font-size="14.00">x</text>
<polygon fill="none" stroke="black" points="317,-7 317,-28 366,-28 366,-7 317,-7"/>
<text text-anchor="start" x="320" y="-13.8" font-family="Times,serif" font-size="14.00">L:(nil)</text>
<polygon fill="none" stroke="black" points="368,-7 368,-28 423,-28 423,-7 368,-7"/>
<text text-anchor="start" x="371" y="-13.8" font-family="Times,serif" font-size="14.00">R: (nil)</text>
<polygon fill="none" stroke="black" points="314,-4 314,-54 426,-54 426,-4 314,-4"/>
</g>
<!-- node0x5648f1fa7580&#45;&gt;node0x5648f1fa7600 -->
<g id="edge4" class="edge">
<title>node0x5648f1fa7580:rchild&#45;&gt;node0x5648f1fa7600</title>
<path fill="none" stroke="black" stroke-width="2" d="M368,-100C368,-89.8 368.21,-78.78 368.5,-68.55"/>
<polygon fill="black" stroke="black" stroke-width="2" points="368.83,-58.26 373.01,-68.4 369.17,-63.28 369.01,-68.27 368.51,-68.26 368.01,-68.24 368.17,-63.25 364.01,-68.12 368.83,-58.26 368.83,-58.26"/>
</g>
<!-- node0x5648f1fa74c0 -->
<g id="node6" class="node">
<title>node0x5648f1fa74c0</title>
<polygon fill="#9acd32" stroke="transparent" points="159,-312 159,-333 441,-333 441,-312 159,-312"/>
<polygon fill="none" stroke="black" points="159,-312 159,-333 441,-333 441,-312 159,-312"/>
<text text-anchor="start" x="293.5" y="-318.8" font-family="Times,serif" font-size="14.00">^</text>
<polygon fill="none" stroke="black" points="159,-289 159,-310 296,-310 296,-289 159,-289"/>
<text text-anchor="start" x="162" y="-295.8" font-family="Times,serif" font-size="14.00">L:0x5648f1fa7500</text>
<polygon fill="none" stroke="black" points="298,-289 298,-310 441,-310 441,-289 298,-289"/>
<text text-anchor="start" x="301" y="-295.8" font-family="Times,serif" font-size="14.00">R: 0x5648f1fa7640</text>
<polygon fill="none" stroke="black" points="156,-286 156,-336 444,-336 444,-286 156,-286"/>
</g>
<!-- node0x5648f1fa74c0&#45;&gt;node0x5648f1fa7500 -->
<g id="edge5" class="edge">
<title>node0x5648f1fa74c0:lchild&#45;&gt;node0x5648f1fa7500</title>
<path fill="none" stroke="black" stroke-width="2" d="M227,-288C227,-276.16 222.38,-264.72 216.11,-254.64"/>
<polygon fill="black" stroke="black" stroke-width="2" points="210.24,-246.16 219.63,-251.83 213.5,-249.99 216.34,-254.1 215.93,-254.39 215.52,-254.67 212.68,-250.56 212.23,-256.95 210.24,-246.16 210.24,-246.16"/>
</g>
<!-- node0x5648f1fa7640 -->
<g id="node7" class="node">
<title>node0x5648f1fa7640</title>
<polygon fill="lightskyblue" stroke="transparent" points="363,-218 363,-239 469,-239 469,-218 363,-218"/>
<polygon fill="none" stroke="black" points="363,-218 363,-239 469,-239 469,-218 363,-218"/>
<text text-anchor="start" x="411" y="-224.8" font-family="Times,serif" font-size="14.00">2</text>
<polygon fill="none" stroke="black" points="363,-195 363,-216 412,-216 412,-195 363,-195"/>
<text text-anchor="start" x="366" y="-201.8" font-family="Times,serif" font-size="14.00">L:(nil)</text>
<polygon fill="none" stroke="black" points="414,-195 414,-216 469,-216 469,-195 414,-195"/>
<text text-anchor="start" x="417" y="-201.8" font-family="Times,serif" font-size="14.00">R: (nil)</text>
<polygon fill="none" stroke="black" points="360,-192 360,-242 472,-242 472,-192 360,-192"/>
</g>
<!-- node0x5648f1fa74c0&#45;&gt;node0x5648f1fa7640 -->
<g id="edge6" class="edge">
<title>node0x5648f1fa74c0:rchild&#45;&gt;node0x5648f1fa7640</title>
<path fill="none" stroke="black" stroke-width="2" d="M370,-288C370,-275.96 374.81,-264.38 381.33,-254.23"/>
<polygon fill="black" stroke="black" stroke-width="2" points="387.13,-246.06 385.01,-256.82 384.64,-250.42 381.75,-254.5 381.34,-254.21 380.93,-253.92 383.83,-249.85 377.67,-251.61 387.13,-246.06 387.13,-246.06"/>
</g>
</g>
</svg>
